<?xml version="1.0" encoding="UTF-8"?>
<svg xmlns="http://www.w3.org/2000/svg" width="1400" height="1000" viewBox="0 0 1400 1000" fill="none">
  <defs>
    <linearGradient id="bg" x1="0" y1="0" x2="1" y2="1">
      <stop offset="0" stop-color="#f0eee9"/>
      <stop offset="1" stop-color="#c9d2c8"/>
    </linearGradient>
    <radialGradient id="spot" cx="0" cy="0" r="1" gradientTransform="translate(700 460) rotate(90) scale(430 520)">
      <stop offset="0" stop-color="#ffffff" stop-opacity="0.66"/>
      <stop offset="1" stop-color="#ffffff" stop-opacity="0"/>
    </radialGradient>
    <linearGradient id="bagGrad" x1="0" y1="0" x2="1" y2="1">
      <stop offset="0" stop-color="#f4efe6"/>
      <stop offset="1" stop-color="#e6dbc8"/>
    </linearGradient>
    <filter id="grain" x="-20%" y="-20%" width="140%" height="140%">
      <feTurbulence type="fractalNoise" baseFrequency="0.85" numOctaves="2" seed="17" stitchTiles="stitch"/>
      <feColorMatrix type="saturate" values="0"/>
      <feComponentTransfer>
        <feFuncA type="table" tableValues="0 0.07"/>
      </feComponentTransfer>
    </filter>
    <filter id="softShadow" x="-30%" y="-30%" width="160%" height="180%">
      <feDropShadow dx="0" dy="18" stdDeviation="20" flood-color="#655443" flood-opacity="0.17"/>
    </filter>
  </defs>

  <rect width="1400" height="1000" fill="url(#bg)"/>
  <path d="M-40 760 C240 640, 470 700, 760 640 C1030 585, 1220 640, 1450 560 L1450 1060 L-40 1060 Z" fill="#e5e7df" opacity="0.95"/>
  <path d="M-40 760 C240 640, 470 700, 760 640 C1030 585, 1220 640, 1450 560" stroke="#d2c6b7" stroke-width="5" opacity="0.42"/>
  <path d="M-80 860 C220 740, 530 815, 790 765 C1010 724, 1210 785, 1450 730" stroke="#d9cebf" stroke-width="4" opacity="0.38"/>

  <rect width="1400" height="1000" filter="url(#grain)" opacity="0.75"/>
  <ellipse cx="700" cy="490" rx="390" ry="310" fill="url(#spot)"/>

  <g filter="url(#softShadow)">
    <rect x="485" y="170" width="430" height="650" rx="54" fill="url(#bagGrad)"/>
    <rect x="520" y="230" width="360" height="120" rx="26" fill="#f9f4ea" opacity="0.88"/>
    <rect x="562" y="398" width="276" height="2" fill="#d4c4ad" opacity="0.45"/>
    <circle cx="700" cy="560" r="88" fill="#ece0cf" opacity="0.8"/>
    <text x="700" y="290" text-anchor="middle" font-size="44" font-family="'Georgia', 'Times New Roman', serif" fill="#5f4b37" letter-spacing="1">Tapiola</text>
    <text x="700" y="327" text-anchor="middle" font-size="17" font-family="'Helvetica Neue', Arial, sans-serif" fill="#7e6b54" letter-spacing="5" opacity="0.88">KARELIA TEA</text>
  </g>

  <g>
    <path d="M250 790 C320 680, 355 590, 390 470" fill="none" stroke="#556a52" stroke-width="4" stroke-linecap="round" opacity="0.8"/>
<path d="M1150 790 C1080 680, 1045 590, 1010 470" fill="none" stroke="#556a52" stroke-width="4" stroke-linecap="round" opacity="0.8"/>
<path d="M360 620 l-68 -20" fill="none" stroke="#4f644d" stroke-width="2.2" stroke-linecap="round" opacity="0.75"/>
<path d="M1040 620 l68 -20" fill="none" stroke="#4f644d" stroke-width="2.2" stroke-linecap="round" opacity="0.75"/>
<path d="M370 600 l-68 -20" fill="none" stroke="#4f644d" stroke-width="2.2" stroke-linecap="round" opacity="0.75"/>
<path d="M1030 600 l68 -20" fill="none" stroke="#4f644d" stroke-width="2.2" stroke-linecap="round" opacity="0.75"/>
<path d="M380 580 l-68 -20" fill="none" stroke="#4f644d" stroke-width="2.2" stroke-linecap="round" opacity="0.75"/>
<path d="M1020 580 l68 -20" fill="none" stroke="#4f644d" stroke-width="2.2" stroke-linecap="round" opacity="0.75"/>
<path d="M390 560 l-68 -20" fill="none" stroke="#4f644d" stroke-width="2.2" stroke-linecap="round" opacity="0.75"/>
<path d="M1010 560 l68 -20" fill="none" stroke="#4f644d" stroke-width="2.2" stroke-linecap="round" opacity="0.75"/>
<path d="M400 540 l-68 -20" fill="none" stroke="#4f644d" stroke-width="2.2" stroke-linecap="round" opacity="0.75"/>
<path d="M1000 540 l68 -20" fill="none" stroke="#4f644d" stroke-width="2.2" stroke-linecap="round" opacity="0.75"/>
<path d="M410 520 l-68 -20" fill="none" stroke="#4f644d" stroke-width="2.2" stroke-linecap="round" opacity="0.75"/>
<path d="M990 520 l68 -20" fill="none" stroke="#4f644d" stroke-width="2.2" stroke-linecap="round" opacity="0.75"/>
<path d="M420 500 l-68 -20" fill="none" stroke="#4f644d" stroke-width="2.2" stroke-linecap="round" opacity="0.75"/>
<path d="M980 500 l68 -20" fill="none" stroke="#4f644d" stroke-width="2.2" stroke-linecap="round" opacity="0.75"/>
<path d="M430 480 l-68 -20" fill="none" stroke="#4f644d" stroke-width="2.2" stroke-linecap="round" opacity="0.75"/>
<path d="M970 480 l68 -20" fill="none" stroke="#4f644d" stroke-width="2.2" stroke-linecap="round" opacity="0.75"/>
<path d="M440 460 l-68 -20" fill="none" stroke="#4f644d" stroke-width="2.2" stroke-linecap="round" opacity="0.75"/>
<path d="M960 460 l68 -20" fill="none" stroke="#4f644d" stroke-width="2.2" stroke-linecap="round" opacity="0.75"/>
<circle cx="455" cy="500" r="18" fill="#4d638f"/><circle cx="448.7" cy="493.7" r="5.0" fill="#ffffff" opacity="0.35"/>
<circle cx="405" cy="550" r="18" fill="#4d638f"/><circle cx="398.7" cy="543.7" r="5.0" fill="#ffffff" opacity="0.35"/>
<circle cx="965" cy="500" r="18" fill="#4d638f"/><circle cx="958.7" cy="493.7" r="5.0" fill="#ffffff" opacity="0.35"/>
<circle cx="1015" cy="550" r="18" fill="#4d638f"/><circle cx="1008.7" cy="543.7" r="5.0" fill="#ffffff" opacity="0.35"/>
  </g>

  <rect width="1400" height="1000" fill="none" stroke="#e6dccf" stroke-width="8" opacity="0.55"/>
</svg>