<?xml version="1.0" encoding="UTF-8"?>
<svg xmlns="http://www.w3.org/2000/svg" width="1400" height="1000" viewBox="0 0 1400 1000" fill="none">
  <defs>
    <linearGradient id="bg" x1="0" y1="0" x2="1" y2="1">
      <stop offset="0" stop-color="#f3ece3"/>
      <stop offset="1" stop-color="#d8c6bc"/>
    </linearGradient>
    <radialGradient id="spot" cx="0" cy="0" r="1" gradientTransform="translate(700 460) rotate(90) scale(430 520)">
      <stop offset="0" stop-color="#ffffff" stop-opacity="0.66"/>
      <stop offset="1" stop-color="#ffffff" stop-opacity="0"/>
    </radialGradient>
    <linearGradient id="bagGrad" x1="0" y1="0" x2="1" y2="1">
      <stop offset="0" stop-color="#f4efe6"/>
      <stop offset="1" stop-color="#e6dbc8"/>
    </linearGradient>
    <filter id="grain" x="-20%" y="-20%" width="140%" height="140%">
      <feTurbulence type="fractalNoise" baseFrequency="0.85" numOctaves="2" seed="17" stitchTiles="stitch"/>
      <feColorMatrix type="saturate" values="0"/>
      <feComponentTransfer>
        <feFuncA type="table" tableValues="0 0.07"/>
      </feComponentTransfer>
    </filter>
    <filter id="softShadow" x="-30%" y="-30%" width="160%" height="180%">
      <feDropShadow dx="0" dy="18" stdDeviation="20" flood-color="#655443" flood-opacity="0.17"/>
    </filter>
  </defs>

  <rect width="1400" height="1000" fill="url(#bg)"/>
  <path d="M-40 760 C240 640, 470 700, 760 640 C1030 585, 1220 640, 1450 560 L1450 1060 L-40 1060 Z" fill="#ebe1d6" opacity="0.95"/>
  <path d="M-40 760 C240 640, 470 700, 760 640 C1030 585, 1220 640, 1450 560" stroke="#d2c6b7" stroke-width="5" opacity="0.42"/>
  <path d="M-80 860 C220 740, 530 815, 790 765 C1010 724, 1210 785, 1450 730" stroke="#d9cebf" stroke-width="4" opacity="0.38"/>

  <rect width="1400" height="1000" filter="url(#grain)" opacity="0.75"/>
  <ellipse cx="700" cy="490" rx="390" ry="310" fill="url(#spot)"/>

  <g filter="url(#softShadow)">
    <rect x="485" y="170" width="430" height="650" rx="54" fill="url(#bagGrad)"/>
    <rect x="520" y="230" width="360" height="120" rx="26" fill="#f9f4ea" opacity="0.88"/>
    <rect x="562" y="398" width="276" height="2" fill="#d4c4ad" opacity="0.45"/>
    <circle cx="700" cy="560" r="88" fill="#ece0cf" opacity="0.8"/>
    <text x="700" y="290" text-anchor="middle" font-size="44" font-family="'Georgia', 'Times New Roman', serif" fill="#5f4b37" letter-spacing="1">Tapiola</text>
    <text x="700" y="327" text-anchor="middle" font-size="17" font-family="'Helvetica Neue', Arial, sans-serif" fill="#7e6b54" letter-spacing="5" opacity="0.88">KARELIA TEA</text>
  </g>

  <g>
    <path d="M265 790 C335 685, 370 585, 420 450" fill="none" stroke="#6f7f64" stroke-width="4" stroke-linecap="round" opacity="0.8"/>
<path d="M1135 790 C1065 685, 1030 585, 980 450" fill="none" stroke="#6f7f64" stroke-width="4" stroke-linecap="round" opacity="0.8"/>
<ellipse cx="459.0" cy="450.0" rx="9.1" ry="4.6" transform="rotate(0.0 459.0 450.0)" fill="#c89ac6" opacity="0.9"/><ellipse cx="454.9" cy="459.9" rx="9.1" ry="4.6" transform="rotate(45.0 454.9 459.9)" fill="#c89ac6" opacity="0.9"/><ellipse cx="445.0" cy="464.0" rx="9.1" ry="4.6" transform="rotate(90.0 445.0 464.0)" fill="#c89ac6" opacity="0.9"/><ellipse cx="435.1" cy="459.9" rx="9.1" ry="4.6" transform="rotate(135.0 435.1 459.9)" fill="#c89ac6" opacity="0.9"/><ellipse cx="431.0" cy="450.0" rx="9.1" ry="4.6" transform="rotate(180.0 431.0 450.0)" fill="#c89ac6" opacity="0.9"/><ellipse cx="435.1" cy="440.1" rx="9.1" ry="4.6" transform="rotate(225.0 435.1 440.1)" fill="#c89ac6" opacity="0.9"/><ellipse cx="445.0" cy="436.0" rx="9.1" ry="4.6" transform="rotate(270.0 445.0 436.0)" fill="#c89ac6" opacity="0.9"/><ellipse cx="454.9" cy="440.1" rx="9.1" ry="4.6" transform="rotate(315.0 454.9 440.1)" fill="#c89ac6" opacity="0.9"/><circle cx="445" cy="450" r="6.3" fill="#e3d2ad"/>
<ellipse cx="969.0" cy="450.0" rx="9.1" ry="4.6" transform="rotate(0.0 969.0 450.0)" fill="#c89ac6" opacity="0.9"/><ellipse cx="964.9" cy="459.9" rx="9.1" ry="4.6" transform="rotate(45.0 964.9 459.9)" fill="#c89ac6" opacity="0.9"/><ellipse cx="955.0" cy="464.0" rx="9.1" ry="4.6" transform="rotate(90.0 955.0 464.0)" fill="#c89ac6" opacity="0.9"/><ellipse cx="945.1" cy="459.9" rx="9.1" ry="4.6" transform="rotate(135.0 945.1 459.9)" fill="#c89ac6" opacity="0.9"/><ellipse cx="941.0" cy="450.0" rx="9.1" ry="4.6" transform="rotate(180.0 941.0 450.0)" fill="#c89ac6" opacity="0.9"/><ellipse cx="945.1" cy="440.1" rx="9.1" ry="4.6" transform="rotate(225.0 945.1 440.1)" fill="#c89ac6" opacity="0.9"/><ellipse cx="955.0" cy="436.0" rx="9.1" ry="4.6" transform="rotate(270.0 955.0 436.0)" fill="#c89ac6" opacity="0.9"/><ellipse cx="964.9" cy="440.1" rx="9.1" ry="4.6" transform="rotate(315.0 964.9 440.1)" fill="#c89ac6" opacity="0.9"/><circle cx="955" cy="450" r="6.3" fill="#e3d2ad"/>
<circle cx="468" cy="525" r="13" fill="#a84049"/><circle cx="463.4" cy="520.5" r="3.6" fill="#ffffff" opacity="0.35"/>
<circle cx="435" cy="560" r="13" fill="#a84049"/><circle cx="430.4" cy="555.5" r="3.6" fill="#ffffff" opacity="0.35"/>
<circle cx="932" cy="525" r="13" fill="#a84049"/><circle cx="927.5" cy="520.5" r="3.6" fill="#ffffff" opacity="0.35"/>
<circle cx="965" cy="560" r="13" fill="#a84049"/><circle cx="960.5" cy="555.5" r="3.6" fill="#ffffff" opacity="0.35"/>
  </g>

  <rect width="1400" height="1000" fill="none" stroke="#e6dccf" stroke-width="8" opacity="0.55"/>
</svg>