<?xml version="1.0" encoding="UTF-8"?>
<svg xmlns="http://www.w3.org/2000/svg" width="1400" height="1000" viewBox="0 0 1400 1000" fill="none">
  <defs>
    <linearGradient id="bg" x1="0" y1="0" x2="1" y2="1">
      <stop offset="0" stop-color="#f4ede4"/>
      <stop offset="1" stop-color="#d9cab6"/>
    </linearGradient>
    <radialGradient id="spot" cx="0" cy="0" r="1" gradientTransform="translate(700 460) rotate(90) scale(430 520)">
      <stop offset="0" stop-color="#ffffff" stop-opacity="0.66"/>
      <stop offset="1" stop-color="#ffffff" stop-opacity="0"/>
    </radialGradient>
    <linearGradient id="bagGrad" x1="0" y1="0" x2="1" y2="1">
      <stop offset="0" stop-color="#f4efe6"/>
      <stop offset="1" stop-color="#e6dbc8"/>
    </linearGradient>
    <filter id="grain" x="-20%" y="-20%" width="140%" height="140%">
      <feTurbulence type="fractalNoise" baseFrequency="0.85" numOctaves="2" seed="17" stitchTiles="stitch"/>
      <feColorMatrix type="saturate" values="0"/>
      <feComponentTransfer>
        <feFuncA type="table" tableValues="0 0.07"/>
      </feComponentTransfer>
    </filter>
    <filter id="softShadow" x="-30%" y="-30%" width="160%" height="180%">
      <feDropShadow dx="0" dy="18" stdDeviation="20" flood-color="#655443" flood-opacity="0.17"/>
    </filter>
  </defs>

  <rect width="1400" height="1000" fill="url(#bg)"/>
  <path d="M-40 760 C240 640, 470 700, 760 640 C1030 585, 1220 640, 1450 560 L1450 1060 L-40 1060 Z" fill="#ece2d4" opacity="0.95"/>
  <path d="M-40 760 C240 640, 470 700, 760 640 C1030 585, 1220 640, 1450 560" stroke="#d2c6b7" stroke-width="5" opacity="0.42"/>
  <path d="M-80 860 C220 740, 530 815, 790 765 C1010 724, 1210 785, 1450 730" stroke="#d9cebf" stroke-width="4" opacity="0.38"/>

  <rect width="1400" height="1000" filter="url(#grain)" opacity="0.75"/>
  <ellipse cx="700" cy="490" rx="390" ry="310" fill="url(#spot)"/>

  <g filter="url(#softShadow)">
    <rect x="485" y="170" width="430" height="650" rx="54" fill="url(#bagGrad)"/>
    <rect x="520" y="230" width="360" height="120" rx="26" fill="#f9f4ea" opacity="0.88"/>
    <rect x="562" y="398" width="276" height="2" fill="#d4c4ad" opacity="0.45"/>
    <circle cx="700" cy="560" r="88" fill="#ece0cf" opacity="0.8"/>
    <text x="700" y="290" text-anchor="middle" font-size="44" font-family="'Georgia', 'Times New Roman', serif" fill="#5f4b37" letter-spacing="1">Tapiola</text>
    <text x="700" y="327" text-anchor="middle" font-size="17" font-family="'Helvetica Neue', Arial, sans-serif" fill="#7e6b54" letter-spacing="5" opacity="0.88">KARELIA TEA</text>
  </g>

  <g>
    <path d="M260 780 C330 660, 355 560, 390 430" fill="none" stroke="#6d7c62" stroke-width="4" stroke-linecap="round" opacity="0.8"/>
<path d="M1140 780 C1065 655, 1035 560, 1000 430" fill="none" stroke="#6d7c62" stroke-width="4" stroke-linecap="round" opacity="0.8"/>
<ellipse cx="330" cy="655" rx="24" ry="62" transform="rotate(-22 330 655)" fill="#7f9a78" opacity="0.9"/>
<ellipse cx="360" cy="585" rx="22" ry="58" transform="rotate(8 360 585)" fill="#78926f" opacity="0.9"/>
<ellipse cx="1030" cy="655" rx="24" ry="62" transform="rotate(22 1030 655)" fill="#7f9a78" opacity="0.9"/>
<ellipse cx="995" cy="585" rx="22" ry="58" transform="rotate(-8 995 585)" fill="#78926f" opacity="0.9"/>
<ellipse cx="433.0" cy="410.0" rx="11.7" ry="5.9" transform="rotate(0.0 433.0 410.0)" fill="#c79ac8" opacity="0.9"/><ellipse cx="427.7" cy="422.7" rx="11.7" ry="5.9" transform="rotate(45.0 427.7 422.7)" fill="#c79ac8" opacity="0.9"/><ellipse cx="415.0" cy="428.0" rx="11.7" ry="5.9" transform="rotate(90.0 415.0 428.0)" fill="#c79ac8" opacity="0.9"/><ellipse cx="402.3" cy="422.7" rx="11.7" ry="5.9" transform="rotate(135.0 402.3 422.7)" fill="#c79ac8" opacity="0.9"/><ellipse cx="397.0" cy="410.0" rx="11.7" ry="5.9" transform="rotate(180.0 397.0 410.0)" fill="#c79ac8" opacity="0.9"/><ellipse cx="402.3" cy="397.3" rx="11.7" ry="5.9" transform="rotate(225.0 402.3 397.3)" fill="#c79ac8" opacity="0.9"/><ellipse cx="415.0" cy="392.0" rx="11.7" ry="5.9" transform="rotate(270.0 415.0 392.0)" fill="#c79ac8" opacity="0.9"/><ellipse cx="427.7" cy="397.3" rx="11.7" ry="5.9" transform="rotate(315.0 427.7 397.3)" fill="#c79ac8" opacity="0.9"/><circle cx="415" cy="410" r="8.1" fill="#e7d5ad"/>
<ellipse cx="998.0" cy="410.0" rx="11.7" ry="5.9" transform="rotate(0.0 998.0 410.0)" fill="#c79ac8" opacity="0.9"/><ellipse cx="992.7" cy="422.7" rx="11.7" ry="5.9" transform="rotate(45.0 992.7 422.7)" fill="#c79ac8" opacity="0.9"/><ellipse cx="980.0" cy="428.0" rx="11.7" ry="5.9" transform="rotate(90.0 980.0 428.0)" fill="#c79ac8" opacity="0.9"/><ellipse cx="967.3" cy="422.7" rx="11.7" ry="5.9" transform="rotate(135.0 967.3 422.7)" fill="#c79ac8" opacity="0.9"/><ellipse cx="962.0" cy="410.0" rx="11.7" ry="5.9" transform="rotate(180.0 962.0 410.0)" fill="#c79ac8" opacity="0.9"/><ellipse cx="967.3" cy="397.3" rx="11.7" ry="5.9" transform="rotate(225.0 967.3 397.3)" fill="#c79ac8" opacity="0.9"/><ellipse cx="980.0" cy="392.0" rx="11.7" ry="5.9" transform="rotate(270.0 980.0 392.0)" fill="#c79ac8" opacity="0.9"/><ellipse cx="992.7" cy="397.3" rx="11.7" ry="5.9" transform="rotate(315.0 992.7 397.3)" fill="#c79ac8" opacity="0.9"/><circle cx="980" cy="410" r="8.1" fill="#e7d5ad"/>
  </g>

  <rect width="1400" height="1000" fill="none" stroke="#e6dccf" stroke-width="8" opacity="0.55"/>
</svg>