<?xml version="1.0" encoding="UTF-8"?>
<svg xmlns="http://www.w3.org/2000/svg" width="1400" height="1000" viewBox="0 0 1400 1000" fill="none">
  <defs>
    <linearGradient id="bg" x1="0" y1="0" x2="1" y2="1">
      <stop offset="0" stop-color="#f2ece4"/>
      <stop offset="1" stop-color="#d3c9bc"/>
    </linearGradient>
    <radialGradient id="spot" cx="0" cy="0" r="1" gradientTransform="translate(700 460) rotate(90) scale(430 520)">
      <stop offset="0" stop-color="#ffffff" stop-opacity="0.66"/>
      <stop offset="1" stop-color="#ffffff" stop-opacity="0"/>
    </radialGradient>
    <linearGradient id="bagGrad" x1="0" y1="0" x2="1" y2="1">
      <stop offset="0" stop-color="#f4efe6"/>
      <stop offset="1" stop-color="#e6dbc8"/>
    </linearGradient>
    <filter id="grain" x="-20%" y="-20%" width="140%" height="140%">
      <feTurbulence type="fractalNoise" baseFrequency="0.85" numOctaves="2" seed="17" stitchTiles="stitch"/>
      <feColorMatrix type="saturate" values="0"/>
      <feComponentTransfer>
        <feFuncA type="table" tableValues="0 0.07"/>
      </feComponentTransfer>
    </filter>
    <filter id="softShadow" x="-30%" y="-30%" width="160%" height="180%">
      <feDropShadow dx="0" dy="18" stdDeviation="20" flood-color="#655443" flood-opacity="0.17"/>
    </filter>
  </defs>

  <rect width="1400" height="1000" fill="url(#bg)"/>
  <path d="M-40 760 C240 640, 470 700, 760 640 C1030 585, 1220 640, 1450 560 L1450 1060 L-40 1060 Z" fill="#eae2d7" opacity="0.95"/>
  <path d="M-40 760 C240 640, 470 700, 760 640 C1030 585, 1220 640, 1450 560" stroke="#d2c6b7" stroke-width="5" opacity="0.42"/>
  <path d="M-80 860 C220 740, 530 815, 790 765 C1010 724, 1210 785, 1450 730" stroke="#d9cebf" stroke-width="4" opacity="0.38"/>

  <rect width="1400" height="1000" filter="url(#grain)" opacity="0.75"/>
  <ellipse cx="700" cy="490" rx="390" ry="310" fill="url(#spot)"/>

  <g filter="url(#softShadow)">
    <rect x="485" y="170" width="430" height="650" rx="54" fill="url(#bagGrad)"/>
    <rect x="520" y="230" width="360" height="120" rx="26" fill="#f9f4ea" opacity="0.88"/>
    <rect x="562" y="398" width="276" height="2" fill="#d4c4ad" opacity="0.45"/>
    <circle cx="700" cy="560" r="88" fill="#ece0cf" opacity="0.8"/>
    <text x="700" y="290" text-anchor="middle" font-size="44" font-family="'Georgia', 'Times New Roman', serif" fill="#5f4b37" letter-spacing="1">Tapiola</text>
    <text x="700" y="327" text-anchor="middle" font-size="17" font-family="'Helvetica Neue', Arial, sans-serif" fill="#7e6b54" letter-spacing="5" opacity="0.88">KARELIA TEA</text>
  </g>

  <g>
    <path d="M270 790 C340 700, 390 600, 455 465" fill="none" stroke="#6d775f" stroke-width="4" stroke-linecap="round" opacity="0.8"/>
<path d="M1130 790 C1060 700, 1010 600, 945 465" fill="none" stroke="#6d775f" stroke-width="4" stroke-linecap="round" opacity="0.8"/>
<circle cx="470" cy="500" r="15" fill="#b9454a"/><circle cx="464.8" cy="494.8" r="4.2" fill="#ffffff" opacity="0.35"/>
<circle cx="438" cy="545" r="15" fill="#b9454a"/><circle cx="432.8" cy="539.8" r="4.2" fill="#ffffff" opacity="0.35"/>
<circle cx="915" cy="500" r="15" fill="#b9454a"/><circle cx="909.8" cy="494.8" r="4.2" fill="#ffffff" opacity="0.35"/>
<circle cx="947" cy="545" r="15" fill="#b9454a"/><circle cx="941.8" cy="539.8" r="4.2" fill="#ffffff" opacity="0.35"/>
<ellipse cx="510.0" cy="455.0" rx="6.5" ry="3.3" transform="rotate(0.0 510.0 455.0)" fill="#b68fc8" opacity="0.9"/><ellipse cx="507.1" cy="462.1" rx="6.5" ry="3.3" transform="rotate(45.0 507.1 462.1)" fill="#b68fc8" opacity="0.9"/><ellipse cx="500.0" cy="465.0" rx="6.5" ry="3.3" transform="rotate(90.0 500.0 465.0)" fill="#b68fc8" opacity="0.9"/><ellipse cx="492.9" cy="462.1" rx="6.5" ry="3.3" transform="rotate(135.0 492.9 462.1)" fill="#b68fc8" opacity="0.9"/><ellipse cx="490.0" cy="455.0" rx="6.5" ry="3.3" transform="rotate(180.0 490.0 455.0)" fill="#b68fc8" opacity="0.9"/><ellipse cx="492.9" cy="447.9" rx="6.5" ry="3.3" transform="rotate(225.0 492.9 447.9)" fill="#b68fc8" opacity="0.9"/><ellipse cx="500.0" cy="445.0" rx="6.5" ry="3.3" transform="rotate(270.0 500.0 445.0)" fill="#b68fc8" opacity="0.9"/><ellipse cx="507.1" cy="447.9" rx="6.5" ry="3.3" transform="rotate(315.0 507.1 447.9)" fill="#b68fc8" opacity="0.9"/><circle cx="500" cy="455" r="4.5" fill="#d8b7e8"/>
<ellipse cx="910.0" cy="455.0" rx="6.5" ry="3.3" transform="rotate(0.0 910.0 455.0)" fill="#b68fc8" opacity="0.9"/><ellipse cx="907.1" cy="462.1" rx="6.5" ry="3.3" transform="rotate(45.0 907.1 462.1)" fill="#b68fc8" opacity="0.9"/><ellipse cx="900.0" cy="465.0" rx="6.5" ry="3.3" transform="rotate(90.0 900.0 465.0)" fill="#b68fc8" opacity="0.9"/><ellipse cx="892.9" cy="462.1" rx="6.5" ry="3.3" transform="rotate(135.0 892.9 462.1)" fill="#b68fc8" opacity="0.9"/><ellipse cx="890.0" cy="455.0" rx="6.5" ry="3.3" transform="rotate(180.0 890.0 455.0)" fill="#b68fc8" opacity="0.9"/><ellipse cx="892.9" cy="447.9" rx="6.5" ry="3.3" transform="rotate(225.0 892.9 447.9)" fill="#b68fc8" opacity="0.9"/><ellipse cx="900.0" cy="445.0" rx="6.5" ry="3.3" transform="rotate(270.0 900.0 445.0)" fill="#b68fc8" opacity="0.9"/><ellipse cx="907.1" cy="447.9" rx="6.5" ry="3.3" transform="rotate(315.0 907.1 447.9)" fill="#b68fc8" opacity="0.9"/><circle cx="900" cy="455" r="4.5" fill="#d8b7e8"/>
<ellipse cx="530.0" cy="500.0" rx="6.5" ry="3.3" transform="rotate(0.0 530.0 500.0)" fill="#b68fc8" opacity="0.9"/><ellipse cx="527.1" cy="507.1" rx="6.5" ry="3.3" transform="rotate(45.0 527.1 507.1)" fill="#b68fc8" opacity="0.9"/><ellipse cx="520.0" cy="510.0" rx="6.5" ry="3.3" transform="rotate(90.0 520.0 510.0)" fill="#b68fc8" opacity="0.9"/><ellipse cx="512.9" cy="507.1" rx="6.5" ry="3.3" transform="rotate(135.0 512.9 507.1)" fill="#b68fc8" opacity="0.9"/><ellipse cx="510.0" cy="500.0" rx="6.5" ry="3.3" transform="rotate(180.0 510.0 500.0)" fill="#b68fc8" opacity="0.9"/><ellipse cx="512.9" cy="492.9" rx="6.5" ry="3.3" transform="rotate(225.0 512.9 492.9)" fill="#b68fc8" opacity="0.9"/><ellipse cx="520.0" cy="490.0" rx="6.5" ry="3.3" transform="rotate(270.0 520.0 490.0)" fill="#b68fc8" opacity="0.9"/><ellipse cx="527.1" cy="492.9" rx="6.5" ry="3.3" transform="rotate(315.0 527.1 492.9)" fill="#b68fc8" opacity="0.9"/><circle cx="520" cy="500" r="4.5" fill="#d8b7e8"/>
<ellipse cx="890.0" cy="500.0" rx="6.5" ry="3.3" transform="rotate(0.0 890.0 500.0)" fill="#b68fc8" opacity="0.9"/><ellipse cx="887.1" cy="507.1" rx="6.5" ry="3.3" transform="rotate(45.0 887.1 507.1)" fill="#b68fc8" opacity="0.9"/><ellipse cx="880.0" cy="510.0" rx="6.5" ry="3.3" transform="rotate(90.0 880.0 510.0)" fill="#b68fc8" opacity="0.9"/><ellipse cx="872.9" cy="507.1" rx="6.5" ry="3.3" transform="rotate(135.0 872.9 507.1)" fill="#b68fc8" opacity="0.9"/><ellipse cx="870.0" cy="500.0" rx="6.5" ry="3.3" transform="rotate(180.0 870.0 500.0)" fill="#b68fc8" opacity="0.9"/><ellipse cx="872.9" cy="492.9" rx="6.5" ry="3.3" transform="rotate(225.0 872.9 492.9)" fill="#b68fc8" opacity="0.9"/><ellipse cx="880.0" cy="490.0" rx="6.5" ry="3.3" transform="rotate(270.0 880.0 490.0)" fill="#b68fc8" opacity="0.9"/><ellipse cx="887.1" cy="492.9" rx="6.5" ry="3.3" transform="rotate(315.0 887.1 492.9)" fill="#b68fc8" opacity="0.9"/><circle cx="880" cy="500" r="4.5" fill="#d8b7e8"/>
  </g>

  <rect width="1400" height="1000" fill="none" stroke="#e6dccf" stroke-width="8" opacity="0.55"/>
</svg>