<?xml version="1.0" encoding="UTF-8"?>
<svg xmlns="http://www.w3.org/2000/svg" width="1400" height="1000" viewBox="0 0 1400 1000" fill="none">
  <defs>
    <linearGradient id="bg" x1="0" y1="0" x2="1" y2="1">
      <stop offset="0" stop-color="#f4efe8"/>
      <stop offset="1" stop-color="#d6d0bf"/>
    </linearGradient>
    <radialGradient id="spot" cx="0" cy="0" r="1" gradientTransform="translate(700 460) rotate(90) scale(430 520)">
      <stop offset="0" stop-color="#ffffff" stop-opacity="0.66"/>
      <stop offset="1" stop-color="#ffffff" stop-opacity="0"/>
    </radialGradient>
    <linearGradient id="bagGrad" x1="0" y1="0" x2="1" y2="1">
      <stop offset="0" stop-color="#f4efe6"/>
      <stop offset="1" stop-color="#e6dbc8"/>
    </linearGradient>
    <filter id="grain" x="-20%" y="-20%" width="140%" height="140%">
      <feTurbulence type="fractalNoise" baseFrequency="0.85" numOctaves="2" seed="17" stitchTiles="stitch"/>
      <feColorMatrix type="saturate" values="0"/>
      <feComponentTransfer>
        <feFuncA type="table" tableValues="0 0.07"/>
      </feComponentTransfer>
    </filter>
    <filter id="softShadow" x="-30%" y="-30%" width="160%" height="180%">
      <feDropShadow dx="0" dy="18" stdDeviation="20" flood-color="#655443" flood-opacity="0.17"/>
    </filter>
  </defs>

  <rect width="1400" height="1000" fill="url(#bg)"/>
  <path d="M-40 760 C240 640, 470 700, 760 640 C1030 585, 1220 640, 1450 560 L1450 1060 L-40 1060 Z" fill="#ebe6da" opacity="0.95"/>
  <path d="M-40 760 C240 640, 470 700, 760 640 C1030 585, 1220 640, 1450 560" stroke="#d2c6b7" stroke-width="5" opacity="0.42"/>
  <path d="M-80 860 C220 740, 530 815, 790 765 C1010 724, 1210 785, 1450 730" stroke="#d9cebf" stroke-width="4" opacity="0.38"/>

  <rect width="1400" height="1000" filter="url(#grain)" opacity="0.75"/>
  <ellipse cx="700" cy="490" rx="390" ry="310" fill="url(#spot)"/>

  <g filter="url(#softShadow)">
    <rect x="485" y="170" width="430" height="650" rx="54" fill="url(#bagGrad)"/>
    <rect x="520" y="230" width="360" height="120" rx="26" fill="#f9f4ea" opacity="0.88"/>
    <rect x="562" y="398" width="276" height="2" fill="#d4c4ad" opacity="0.45"/>
    <circle cx="700" cy="560" r="88" fill="#ece0cf" opacity="0.8"/>
    <text x="700" y="290" text-anchor="middle" font-size="44" font-family="'Georgia', 'Times New Roman', serif" fill="#5f4b37" letter-spacing="1">Tapiola</text>
    <text x="700" y="327" text-anchor="middle" font-size="17" font-family="'Helvetica Neue', Arial, sans-serif" fill="#7e6b54" letter-spacing="5" opacity="0.88">KARELIA TEA</text>
  </g>

  <g>
    <path d="M270 790 C340 690, 390 590, 455 430" fill="none" stroke="#718261" stroke-width="4" stroke-linecap="round" opacity="0.8"/>
<path d="M1130 790 C1060 690, 1010 590, 945 430" fill="none" stroke="#718261" stroke-width="4" stroke-linecap="round" opacity="0.8"/>
<ellipse cx="365" cy="620" rx="18" ry="48" transform="rotate(-25 365 620)" fill="#839a79" opacity="0.9"/>
<ellipse cx="405" cy="565" rx="18" ry="48" transform="rotate(15 405 565)" fill="#839a79" opacity="0.9"/>
<ellipse cx="995" cy="620" rx="18" ry="48" transform="rotate(25 995 620)" fill="#839a79" opacity="0.9"/>
<ellipse cx="955" cy="565" rx="18" ry="48" transform="rotate(-15 955 565)" fill="#839a79" opacity="0.9"/>
<ellipse cx="486.0" cy="450.0" rx="10.4" ry="5.3" transform="rotate(0.0 486.0 450.0)" fill="#f6f0e7" opacity="0.9"/><ellipse cx="481.3" cy="461.3" rx="10.4" ry="5.3" transform="rotate(45.0 481.3 461.3)" fill="#f6f0e7" opacity="0.9"/><ellipse cx="470.0" cy="466.0" rx="10.4" ry="5.3" transform="rotate(90.0 470.0 466.0)" fill="#f6f0e7" opacity="0.9"/><ellipse cx="458.7" cy="461.3" rx="10.4" ry="5.3" transform="rotate(135.0 458.7 461.3)" fill="#f6f0e7" opacity="0.9"/><ellipse cx="454.0" cy="450.0" rx="10.4" ry="5.3" transform="rotate(180.0 454.0 450.0)" fill="#f6f0e7" opacity="0.9"/><ellipse cx="458.7" cy="438.7" rx="10.4" ry="5.3" transform="rotate(225.0 458.7 438.7)" fill="#f6f0e7" opacity="0.9"/><ellipse cx="470.0" cy="434.0" rx="10.4" ry="5.3" transform="rotate(270.0 470.0 434.0)" fill="#f6f0e7" opacity="0.9"/><ellipse cx="481.3" cy="438.7" rx="10.4" ry="5.3" transform="rotate(315.0 481.3 438.7)" fill="#f6f0e7" opacity="0.9"/><circle cx="470" cy="450" r="7.2" fill="#d8b36b"/>
<ellipse cx="946.0" cy="450.0" rx="10.4" ry="5.3" transform="rotate(0.0 946.0 450.0)" fill="#f6f0e7" opacity="0.9"/><ellipse cx="941.3" cy="461.3" rx="10.4" ry="5.3" transform="rotate(45.0 941.3 461.3)" fill="#f6f0e7" opacity="0.9"/><ellipse cx="930.0" cy="466.0" rx="10.4" ry="5.3" transform="rotate(90.0 930.0 466.0)" fill="#f6f0e7" opacity="0.9"/><ellipse cx="918.7" cy="461.3" rx="10.4" ry="5.3" transform="rotate(135.0 918.7 461.3)" fill="#f6f0e7" opacity="0.9"/><ellipse cx="914.0" cy="450.0" rx="10.4" ry="5.3" transform="rotate(180.0 914.0 450.0)" fill="#f6f0e7" opacity="0.9"/><ellipse cx="918.7" cy="438.7" rx="10.4" ry="5.3" transform="rotate(225.0 918.7 438.7)" fill="#f6f0e7" opacity="0.9"/><ellipse cx="930.0" cy="434.0" rx="10.4" ry="5.3" transform="rotate(270.0 930.0 434.0)" fill="#f6f0e7" opacity="0.9"/><ellipse cx="941.3" cy="438.7" rx="10.4" ry="5.3" transform="rotate(315.0 941.3 438.7)" fill="#f6f0e7" opacity="0.9"/><circle cx="930" cy="450" r="7.2" fill="#d8b36b"/>
  </g>

  <rect width="1400" height="1000" fill="none" stroke="#e6dccf" stroke-width="8" opacity="0.55"/>
</svg>